<?xml version="1.0" encoding="UTF-8" standalone="no"?>
<!-- Uploaded to: SVG Repo, www.svgrepo.com, Transformed by: SVG Repo Mixer Tools -->

<svg
   width="800px"
   height="800px"
   viewBox="0 0 192.76 192.76"
   fill="#000000"
   version="1.1"
   id="svg2"
   sodipodi:docname="nike-2-logo-svgrepo-com.svg"
   inkscape:version="1.3 (0e150ed6c4, 2023-07-21)"
   xmlns:inkscape="http://www.inkscape.org/namespaces/inkscape"
   xmlns:sodipodi="http://sodipodi.sourceforge.net/DTD/sodipodi-0.dtd"
   xmlns="http://www.w3.org/2000/svg"
   xmlns:svg="http://www.w3.org/2000/svg">
  <defs
     id="defs2" />
  <sodipodi:namedview
     id="namedview2"
     pagecolor="#ffffff"
     bordercolor="#999999"
     borderopacity="1"
     inkscape:showpageshadow="2"
     inkscape:pageopacity="0"
     inkscape:pagecheckerboard="0"
     inkscape:deskcolor="#d1d1d1"
     inkscape:zoom="1.10125"
     inkscape:cx="400"
     inkscape:cy="255.61862"
     inkscape:window-width="1920"
     inkscape:window-height="1164"
     inkscape:window-x="-11"
     inkscape:window-y="-11"
     inkscape:window-maximized="1"
     inkscape:current-layer="svg2" />
  <path
     d="m 8.5825,78.846387 h 10.072 l 0.228,24.818003 c 0,0 0.071,5.996 -3.527,8.934 -2.788,2.275 -5.944,2.441 -8.536,1.992 -2.572,-0.443 -3.983,-1.48 -3.983,-1.48 v -8.537 c 0,0 0.91,0.74 2.161,1.139 1.252,0.398 2.075,0.713 3.187,-0.398 0.569,-0.568 0.513,-2.389 0.513,-2.389 z m 10.724,23.965003 c 0,0 -1.403,12.121 12.407,12.121 12.753,0 12.061,-11.459 12.061,-12.578 0,-1.117 -0.113,-23.561003 -0.113,-23.561003 h -10.073 l 0.058,23.049003 c 0,0 0.283,3.586 -2.163,3.586 -2.446,0 -2.104,-3.357 -2.104,-3.357 l -0.171,-23.220003 h -10.073 z m 43.826,-13.486003 -0.063,-9.051 c 0,0 -4.241,-2.168 -8.737,-2.168 -6.122,0 -8.705,4.526 -8.705,4.526 0,0 -2.345,3.266 -1.534,7.592002 0.537,2.861 1.609,4.415 3.934,6.705 1.06,1.045 3.084,2.682 3.621,3.219001 0.537,0.537 2.397,1.695 2.101,3.621 -0.192,1.258 -0.893,2.127 -3.263,2.057 -2.995,-0.09 -6.482,-2.996 -6.482,-2.996 l 0.045,9.254 c 0,0 3.979,2.896 8.225,2.816 4.738,-0.09 7.018,-1.654 8.583,-2.906 2.34,-1.871 4.157,-5.9 3.532,-10.326 -0.626,-4.426001 -4.604,-7.331001 -5.722,-8.270001 -1.118,-0.939 -3.621,-2.771 -4.068,-3.800002 -0.447,-1.028 0.402,-2.682 1.341,-2.816 0.939,-0.134 2.498,-0.899 7.192,2.543 z m 0.387,-1.586 h 5.926 v 26.384003 h 10.021 V 87.739387 h 5.637 v -8.907 h -21.584 z m 98.347,0 h 5.926 v 26.384003 h 10.021 V 87.739387 h 5.637 v -8.907 h -21.584 z m -69.873,26.449003 h 10.996 c 2.281,0 14.082,-0.535 14.082,-18.297001 0,-17.359002 -13.008,-17.023002 -13.008,-17.023002 h -12.003 z m 10.192,-25.939003 c 0,0 1.41,-0.134 2.012,0.202 0.605,0.335 2.482,1.407 2.482,8.444002 0,7.039001 -1.543,7.912001 -2.549,8.447001 -1.006,0.535 -2.012,0.268 -2.012,0.268 z m 28.701,-10.388 c 0,0 -13.479,-0.469 -13.479,18.164002 0,20.174001 13.479,18.832001 13.479,18.832001 0,0 13.947,1.811 13.947,-18.430001 0,-20.241002 -13.947,-18.566002 -13.947,-18.566002 z m 0.066,8.713 c 0.939,0 3.219,-0.669 3.219,9.854002 0,10.320001 -2.682,9.381001 -3.152,9.381001 -0.469,0 -3.285,0.672 -3.285,-9.314001 -10e-4,-10.256002 2.279,-9.921002 3.218,-9.921002 z m 20.117,27.547003 h 10.125 V 78.867387 h -10.26 z m 27.565,-4.89 c 0,2.789 2.295,5.656 5.605,5.656 2.896,0 5.684,-2.059 5.684,-5.682 0,-2.607 -2.189,-5.605 -5.684,-5.605 -2.607,0 -5.605,2.111 -5.605,5.631 z"
     id="path2"
     style="fill:#ffffff;fill-opacity:1" />
</svg>
